<mxfile host="app.diagrams.net" modified="2022-05-30T20:31:49.272Z" agent="5.0 (Macintosh; Intel Mac OS X 10_15_7) AppleWebKit/537.36 (KHTML, like Gecko) Chrome/100.0.4896.162 Safari/537.36" etag="fpimZEX2rmyoC2dqBmc8" version="18.0.1" type="github" pages="2">
  <diagram id="UJfyr34iM5Co2YaqvePH" name="Page-1">
    <mxGraphModel dx="1175" dy="1928" grid="1" gridSize="10" guides="1" tooltips="1" connect="1" arrows="1" fold="1" page="1" pageScale="1" pageWidth="827" pageHeight="1169" math="0" shadow="0">
      <root>
        <mxCell id="0" />
        <mxCell id="1" parent="0" />
        <mxCell id="9fXRhX-7mxiINYHl0u6g-27" value="" style="edgeStyle=none;rounded=0;orthogonalLoop=1;jettySize=auto;html=1;" edge="1" parent="1" source="9fXRhX-7mxiINYHl0u6g-1" target="9fXRhX-7mxiINYHl0u6g-26">
          <mxGeometry relative="1" as="geometry" />
        </mxCell>
        <mxCell id="9fXRhX-7mxiINYHl0u6g-1" value="BJS" style="points=[[0,0],[0.25,0],[0.5,0],[0.75,0],[1,0],[1,0.25],[1,0.5],[1,0.75],[1,1],[0.75,1],[0.5,1],[0.25,1],[0,1],[0,0.75],[0,0.5],[0,0.25]];outlineConnect=0;gradientColor=none;html=1;whiteSpace=wrap;fontSize=12;fontStyle=0;container=1;pointerEvents=0;collapsible=0;recursiveResize=0;shape=mxgraph.aws4.group;grIcon=mxgraph.aws4.group_region;strokeColor=#147EBA;fillColor=none;verticalAlign=top;align=left;spacingLeft=30;fontColor=#147EBA;dashed=1;" vertex="1" parent="1">
          <mxGeometry x="160" y="80" width="360" height="440" as="geometry" />
        </mxCell>
        <mxCell id="9fXRhX-7mxiINYHl0u6g-3" value="" style="rounded=1;arcSize=10;dashed=1;strokeColor=#F59D56;fillColor=none;gradientColor=none;dashPattern=8 4;strokeWidth=2;" vertex="1" parent="9fXRhX-7mxiINYHl0u6g-1">
          <mxGeometry x="20" y="40" width="320" height="320" as="geometry" />
        </mxCell>
        <mxCell id="9fXRhX-7mxiINYHl0u6g-8" value="" style="edgeStyle=orthogonalEdgeStyle;rounded=0;orthogonalLoop=1;jettySize=auto;html=1;" edge="1" parent="9fXRhX-7mxiINYHl0u6g-1" source="9fXRhX-7mxiINYHl0u6g-5">
          <mxGeometry relative="1" as="geometry">
            <mxPoint x="175" y="160" as="targetPoint" />
          </mxGeometry>
        </mxCell>
        <mxCell id="9fXRhX-7mxiINYHl0u6g-5" value="" style="sketch=0;outlineConnect=0;fontColor=#232F3E;gradientColor=none;fillColor=#4D27AA;strokeColor=none;dashed=0;verticalLabelPosition=bottom;verticalAlign=top;align=center;html=1;fontSize=12;fontStyle=0;aspect=fixed;pointerEvents=1;shape=mxgraph.aws4.application_load_balancer;" vertex="1" parent="9fXRhX-7mxiINYHl0u6g-1">
          <mxGeometry x="150" y="60" width="50" height="50" as="geometry" />
        </mxCell>
        <mxCell id="9fXRhX-7mxiINYHl0u6g-6" value="ALB" style="text;html=1;strokeColor=none;fillColor=none;align=center;verticalAlign=middle;whiteSpace=wrap;rounded=0;" vertex="1" parent="9fXRhX-7mxiINYHl0u6g-1">
          <mxGeometry x="200" y="80" width="60" height="30" as="geometry" />
        </mxCell>
        <mxCell id="9fXRhX-7mxiINYHl0u6g-7" value="Amazon EC2" style="sketch=0;outlineConnect=0;fontColor=#232F3E;gradientColor=none;strokeColor=#ffffff;fillColor=#232F3E;dashed=0;verticalLabelPosition=middle;verticalAlign=bottom;align=center;html=1;whiteSpace=wrap;fontSize=10;fontStyle=1;spacing=3;shape=mxgraph.aws4.productIcon;prIcon=mxgraph.aws4.ec2;" vertex="1" parent="9fXRhX-7mxiINYHl0u6g-1">
          <mxGeometry x="80" y="200" width="40" height="30" as="geometry" />
        </mxCell>
        <mxCell id="9fXRhX-7mxiINYHl0u6g-23" value="" style="sketch=0;points=[[0,0,0],[0.25,0,0],[0.5,0,0],[0.75,0,0],[1,0,0],[0,1,0],[0.25,1,0],[0.5,1,0],[0.75,1,0],[1,1,0],[0,0.25,0],[0,0.5,0],[0,0.75,0],[1,0.25,0],[1,0.5,0],[1,0.75,0]];outlineConnect=0;fontColor=#232F3E;gradientColor=#60A337;gradientDirection=north;fillColor=#277116;strokeColor=#ffffff;dashed=0;verticalLabelPosition=bottom;verticalAlign=top;align=center;html=1;fontSize=12;fontStyle=0;aspect=fixed;shape=mxgraph.aws4.resourceIcon;resIcon=mxgraph.aws4.s3;" vertex="1" parent="9fXRhX-7mxiINYHl0u6g-1">
          <mxGeometry x="150" y="380" width="50" height="50" as="geometry" />
        </mxCell>
        <mxCell id="9fXRhX-7mxiINYHl0u6g-24" value="s3" style="text;html=1;strokeColor=none;fillColor=none;align=center;verticalAlign=middle;whiteSpace=wrap;rounded=0;" vertex="1" parent="9fXRhX-7mxiINYHl0u6g-1">
          <mxGeometry x="215" y="390" width="60" height="30" as="geometry" />
        </mxCell>
        <mxCell id="9fXRhX-7mxiINYHl0u6g-29" value="Amazon EC2" style="sketch=0;outlineConnect=0;fontColor=#232F3E;gradientColor=none;strokeColor=#ffffff;fillColor=#232F3E;dashed=0;verticalLabelPosition=middle;verticalAlign=bottom;align=center;html=1;whiteSpace=wrap;fontSize=10;fontStyle=1;spacing=3;shape=mxgraph.aws4.productIcon;prIcon=mxgraph.aws4.ec2;" vertex="1" parent="9fXRhX-7mxiINYHl0u6g-1">
          <mxGeometry x="130" y="200" width="40" height="30" as="geometry" />
        </mxCell>
        <mxCell id="9fXRhX-7mxiINYHl0u6g-30" value="Amazon EC2" style="sketch=0;outlineConnect=0;fontColor=#232F3E;gradientColor=none;strokeColor=#ffffff;fillColor=#232F3E;dashed=0;verticalLabelPosition=middle;verticalAlign=bottom;align=center;html=1;whiteSpace=wrap;fontSize=10;fontStyle=1;spacing=3;shape=mxgraph.aws4.productIcon;prIcon=mxgraph.aws4.ec2;" vertex="1" parent="9fXRhX-7mxiINYHl0u6g-1">
          <mxGeometry x="180" y="200" width="40" height="30" as="geometry" />
        </mxCell>
        <mxCell id="9fXRhX-7mxiINYHl0u6g-31" value="Amazon EC2" style="sketch=0;outlineConnect=0;fontColor=#232F3E;gradientColor=none;strokeColor=#ffffff;fillColor=#232F3E;dashed=0;verticalLabelPosition=middle;verticalAlign=bottom;align=center;html=1;whiteSpace=wrap;fontSize=10;fontStyle=1;spacing=3;shape=mxgraph.aws4.productIcon;prIcon=mxgraph.aws4.ec2;" vertex="1" parent="9fXRhX-7mxiINYHl0u6g-1">
          <mxGeometry x="233" y="200" width="40" height="30" as="geometry" />
        </mxCell>
        <mxCell id="9fXRhX-7mxiINYHl0u6g-12" value="" style="edgeStyle=orthogonalEdgeStyle;rounded=0;orthogonalLoop=1;jettySize=auto;html=1;" edge="1" parent="1" source="9fXRhX-7mxiINYHl0u6g-11" target="9fXRhX-7mxiINYHl0u6g-5">
          <mxGeometry relative="1" as="geometry" />
        </mxCell>
        <mxCell id="9fXRhX-7mxiINYHl0u6g-11" value="" style="sketch=0;points=[[0,0,0],[0.25,0,0],[0.5,0,0],[0.75,0,0],[1,0,0],[0,1,0],[0.25,1,0],[0.5,1,0],[0.75,1,0],[1,1,0],[0,0.25,0],[0,0.5,0],[0,0.75,0],[1,0.25,0],[1,0.5,0],[1,0.75,0]];outlineConnect=0;fontColor=#232F3E;gradientColor=#945DF2;gradientDirection=north;fillColor=#5A30B5;strokeColor=#ffffff;dashed=0;verticalLabelPosition=bottom;verticalAlign=top;align=center;html=1;fontSize=12;fontStyle=0;aspect=fixed;shape=mxgraph.aws4.resourceIcon;resIcon=mxgraph.aws4.cloudfront;" vertex="1" parent="1">
          <mxGeometry x="300" y="-50" width="70" height="70" as="geometry" />
        </mxCell>
        <mxCell id="9fXRhX-7mxiINYHl0u6g-13" value="CloudFront" style="text;html=1;strokeColor=none;fillColor=none;align=center;verticalAlign=middle;whiteSpace=wrap;rounded=0;" vertex="1" parent="1">
          <mxGeometry x="380" y="-30" width="60" height="30" as="geometry" />
        </mxCell>
        <mxCell id="9fXRhX-7mxiINYHl0u6g-15" value="&amp;nbsp; &amp;nbsp; on-premises" style="sketch=0;points=[[0,0,0],[0.25,0,0],[0.5,0,0],[0.75,0,0],[1,0,0],[1,0.25,0],[1,0.5,0],[1,0.75,0],[1,1,0],[0.75,1,0],[0.5,1,0],[0.25,1,0],[0,1,0],[0,0.75,0],[0,0.5,0],[0,0.25,0]];rounded=1;absoluteArcSize=1;arcSize=2;html=1;strokeColor=none;gradientColor=none;shadow=0;dashed=0;fontSize=12;fontColor=#9E9E9E;align=left;verticalAlign=top;spacing=10;spacingTop=-4;fillColor=#EFEBE9;" vertex="1" parent="1">
          <mxGeometry x="620" y="80" width="190" height="440" as="geometry" />
        </mxCell>
        <mxCell id="9fXRhX-7mxiINYHl0u6g-17" value="" style="outlineConnect=0;dashed=0;verticalLabelPosition=bottom;verticalAlign=top;align=center;html=1;shape=mxgraph.aws3.oracle_db_instance_2;fillColor=#2E73B8;gradientColor=none;" vertex="1" parent="1">
          <mxGeometry x="640" y="320" width="60" height="63" as="geometry" />
        </mxCell>
        <mxCell id="9fXRhX-7mxiINYHl0u6g-18" value="" style="outlineConnect=0;dashed=0;verticalLabelPosition=bottom;verticalAlign=top;align=center;html=1;shape=mxgraph.aws3.redis;fillColor=#2E73B8;gradientColor=none;" vertex="1" parent="1">
          <mxGeometry x="730" y="320" width="60" height="63" as="geometry" />
        </mxCell>
        <mxCell id="9fXRhX-7mxiINYHl0u6g-20" value="" style="orthogonalLoop=1;jettySize=auto;html=1;rounded=0;endArrow=none;endFill=0;startArrow=none;startFill=0;" edge="1" parent="1" source="9fXRhX-7mxiINYHl0u6g-19">
          <mxGeometry relative="1" as="geometry">
            <mxPoint x="620" y="300" as="targetPoint" />
          </mxGeometry>
        </mxCell>
        <mxCell id="9fXRhX-7mxiINYHl0u6g-21" value="" style="rounded=0;orthogonalLoop=1;jettySize=auto;html=1;endArrow=none;endFill=0;" edge="1" parent="1" source="9fXRhX-7mxiINYHl0u6g-19">
          <mxGeometry relative="1" as="geometry">
            <mxPoint x="500" y="300" as="targetPoint" />
          </mxGeometry>
        </mxCell>
        <mxCell id="9fXRhX-7mxiINYHl0u6g-19" value="" style="sketch=0;points=[[0,0,0],[0.25,0,0],[0.5,0,0],[0.75,0,0],[1,0,0],[0,1,0],[0.25,1,0],[0.5,1,0],[0.75,1,0],[1,1,0],[0,0.25,0],[0,0.5,0],[0,0.75,0],[1,0.25,0],[1,0.5,0],[1,0.75,0]];outlineConnect=0;fontColor=#232F3E;gradientColor=#945DF2;gradientDirection=north;fillColor=#5A30B5;strokeColor=#ffffff;dashed=0;verticalLabelPosition=bottom;verticalAlign=top;align=center;html=1;fontSize=12;fontStyle=0;aspect=fixed;shape=mxgraph.aws4.resourceIcon;resIcon=mxgraph.aws4.direct_connect;" vertex="1" parent="1">
          <mxGeometry x="550" y="286" width="28" height="28" as="geometry" />
        </mxCell>
        <mxCell id="9fXRhX-7mxiINYHl0u6g-22" value="" style="outlineConnect=0;dashed=0;verticalLabelPosition=bottom;verticalAlign=top;align=center;html=1;shape=mxgraph.aws3.office_building;fillColor=#7D7C7C;gradientColor=none;" vertex="1" parent="1">
          <mxGeometry x="630" y="90" width="10" height="29.5" as="geometry" />
        </mxCell>
        <mxCell id="9fXRhX-7mxiINYHl0u6g-26" value="dx" style="text;html=1;strokeColor=none;fillColor=none;align=center;verticalAlign=middle;whiteSpace=wrap;rounded=0;" vertex="1" parent="1">
          <mxGeometry x="534" y="314" width="60" height="30" as="geometry" />
        </mxCell>
      </root>
    </mxGraphModel>
  </diagram>
  <diagram id="SszIxEacuzP81ZF-JLr1" name="Page-2">
    <mxGraphModel dx="940" dy="607" grid="1" gridSize="10" guides="1" tooltips="1" connect="1" arrows="1" fold="1" page="1" pageScale="1" pageWidth="827" pageHeight="1169" math="0" shadow="0">
      <root>
        <mxCell id="0" />
        <mxCell id="1" parent="0" />
        <mxCell id="8Do0iTCPds5O6wWXUv8Q-1" value="BJ Region" style="points=[[0,0],[0.25,0],[0.5,0],[0.75,0],[1,0],[1,0.25],[1,0.5],[1,0.75],[1,1],[0.75,1],[0.5,1],[0.25,1],[0,1],[0,0.75],[0,0.5],[0,0.25]];outlineConnect=0;gradientColor=none;html=1;whiteSpace=wrap;fontSize=12;fontStyle=0;container=1;pointerEvents=0;collapsible=0;recursiveResize=0;shape=mxgraph.aws4.group;grIcon=mxgraph.aws4.group_region;strokeColor=#147EBA;fillColor=none;verticalAlign=top;align=left;spacingLeft=30;fontColor=#147EBA;dashed=1;" vertex="1" parent="1">
          <mxGeometry x="40" y="80" width="660" height="583" as="geometry" />
        </mxCell>
        <mxCell id="8Do0iTCPds5O6wWXUv8Q-2" value="VPC" style="points=[[0,0],[0.25,0],[0.5,0],[0.75,0],[1,0],[1,0.25],[1,0.5],[1,0.75],[1,1],[0.75,1],[0.5,1],[0.25,1],[0,1],[0,0.75],[0,0.5],[0,0.25]];outlineConnect=0;gradientColor=none;html=1;whiteSpace=wrap;fontSize=12;fontStyle=0;container=1;pointerEvents=0;collapsible=0;recursiveResize=0;shape=mxgraph.aws4.group;grIcon=mxgraph.aws4.group_vpc;strokeColor=#248814;fillColor=none;verticalAlign=top;align=left;spacingLeft=30;fontColor=#AAB7B8;dashed=0;" vertex="1" parent="8Do0iTCPds5O6wWXUv8Q-1">
          <mxGeometry x="30" y="70" width="600" height="460" as="geometry" />
        </mxCell>
        <mxCell id="8Do0iTCPds5O6wWXUv8Q-3" value="Availability Zone1" style="fillColor=none;strokeColor=#147EBA;dashed=1;verticalAlign=top;fontStyle=0;fontColor=#147EBA;" vertex="1" parent="8Do0iTCPds5O6wWXUv8Q-2">
          <mxGeometry x="30" y="50" width="220" height="380" as="geometry" />
        </mxCell>
        <mxCell id="8Do0iTCPds5O6wWXUv8Q-4" value="Availability Zone2" style="fillColor=none;strokeColor=#147EBA;dashed=1;verticalAlign=top;fontStyle=0;fontColor=#147EBA;" vertex="1" parent="8Do0iTCPds5O6wWXUv8Q-2">
          <mxGeometry x="310" y="50" width="220" height="380" as="geometry" />
        </mxCell>
        <mxCell id="8Do0iTCPds5O6wWXUv8Q-5" value="Public subnet" style="points=[[0,0],[0.25,0],[0.5,0],[0.75,0],[1,0],[1,0.25],[1,0.5],[1,0.75],[1,1],[0.75,1],[0.5,1],[0.25,1],[0,1],[0,0.75],[0,0.5],[0,0.25]];outlineConnect=0;gradientColor=none;html=1;whiteSpace=wrap;fontSize=12;fontStyle=0;container=1;pointerEvents=0;collapsible=0;recursiveResize=0;shape=mxgraph.aws4.group;grIcon=mxgraph.aws4.group_security_group;grStroke=0;strokeColor=#248814;fillColor=#E9F3E6;verticalAlign=top;align=left;spacingLeft=30;fontColor=#248814;dashed=0;" vertex="1" parent="8Do0iTCPds5O6wWXUv8Q-2">
          <mxGeometry x="50" y="80" width="180" height="130" as="geometry" />
        </mxCell>
        <mxCell id="8Do0iTCPds5O6wWXUv8Q-50" value="" style="sketch=0;outlineConnect=0;fontColor=#232F3E;gradientColor=none;fillColor=#D45B07;strokeColor=none;dashed=0;verticalLabelPosition=bottom;verticalAlign=top;align=center;html=1;fontSize=12;fontStyle=0;aspect=fixed;pointerEvents=1;shape=mxgraph.aws4.t3_instance;" vertex="1" parent="8Do0iTCPds5O6wWXUv8Q-5">
          <mxGeometry x="73" y="46" width="34" height="34" as="geometry" />
        </mxCell>
        <mxCell id="8Do0iTCPds5O6wWXUv8Q-51" value="JumpServer" style="text;html=1;strokeColor=none;fillColor=none;align=center;verticalAlign=middle;whiteSpace=wrap;rounded=0;" vertex="1" parent="8Do0iTCPds5O6wWXUv8Q-5">
          <mxGeometry x="60" y="84" width="60" height="30" as="geometry" />
        </mxCell>
        <mxCell id="8Do0iTCPds5O6wWXUv8Q-7" value="Public subnet" style="points=[[0,0],[0.25,0],[0.5,0],[0.75,0],[1,0],[1,0.25],[1,0.5],[1,0.75],[1,1],[0.75,1],[0.5,1],[0.25,1],[0,1],[0,0.75],[0,0.5],[0,0.25]];outlineConnect=0;gradientColor=none;html=1;whiteSpace=wrap;fontSize=12;fontStyle=0;container=1;pointerEvents=0;collapsible=0;recursiveResize=0;shape=mxgraph.aws4.group;grIcon=mxgraph.aws4.group_security_group;grStroke=0;strokeColor=#248814;fillColor=#E9F3E6;verticalAlign=top;align=left;spacingLeft=30;fontColor=#248814;dashed=0;" vertex="1" parent="8Do0iTCPds5O6wWXUv8Q-2">
          <mxGeometry x="330" y="80" width="180" height="130" as="geometry" />
        </mxCell>
        <mxCell id="8Do0iTCPds5O6wWXUv8Q-19" value="" style="sketch=0;outlineConnect=0;fontColor=#232F3E;gradientColor=none;fillColor=#4D27AA;strokeColor=none;dashed=0;verticalLabelPosition=bottom;verticalAlign=top;align=center;html=1;fontSize=12;fontStyle=0;aspect=fixed;pointerEvents=1;shape=mxgraph.aws4.nat_gateway;" vertex="1" parent="8Do0iTCPds5O6wWXUv8Q-7">
          <mxGeometry x="71" y="46" width="38" height="38" as="geometry" />
        </mxCell>
        <mxCell id="8Do0iTCPds5O6wWXUv8Q-20" value="NAT GW" style="text;html=1;strokeColor=none;fillColor=none;align=center;verticalAlign=middle;whiteSpace=wrap;rounded=0;" vertex="1" parent="8Do0iTCPds5O6wWXUv8Q-7">
          <mxGeometry x="60" y="90" width="60" height="30" as="geometry" />
        </mxCell>
        <mxCell id="8Do0iTCPds5O6wWXUv8Q-8" value="Private subnet" style="points=[[0,0],[0.25,0],[0.5,0],[0.75,0],[1,0],[1,0.25],[1,0.5],[1,0.75],[1,1],[0.75,1],[0.5,1],[0.25,1],[0,1],[0,0.75],[0,0.5],[0,0.25]];outlineConnect=0;gradientColor=none;html=1;whiteSpace=wrap;fontSize=12;fontStyle=0;container=1;pointerEvents=0;collapsible=0;recursiveResize=0;shape=mxgraph.aws4.group;grIcon=mxgraph.aws4.group_security_group;grStroke=0;strokeColor=#147EBA;fillColor=#E6F2F8;verticalAlign=top;align=left;spacingLeft=30;fontColor=#147EBA;dashed=0;" vertex="1" parent="8Do0iTCPds5O6wWXUv8Q-2">
          <mxGeometry x="50" y="240" width="180" height="130" as="geometry" />
        </mxCell>
        <mxCell id="8Do0iTCPds5O6wWXUv8Q-13" value="" style="sketch=0;outlineConnect=0;fontColor=#232F3E;gradientColor=none;fillColor=#D45B07;strokeColor=none;dashed=0;verticalLabelPosition=bottom;verticalAlign=top;align=center;html=1;fontSize=12;fontStyle=0;aspect=fixed;pointerEvents=1;shape=mxgraph.aws4.c5_instance;" vertex="1" parent="8Do0iTCPds5O6wWXUv8Q-8">
          <mxGeometry x="100" y="60" width="40" height="40" as="geometry" />
        </mxCell>
        <mxCell id="8Do0iTCPds5O6wWXUv8Q-11" value="" style="sketch=0;outlineConnect=0;fontColor=#232F3E;gradientColor=none;fillColor=#D45B07;strokeColor=none;dashed=0;verticalLabelPosition=bottom;verticalAlign=top;align=center;html=1;fontSize=12;fontStyle=0;aspect=fixed;pointerEvents=1;shape=mxgraph.aws4.c5_instance;" vertex="1" parent="8Do0iTCPds5O6wWXUv8Q-8">
          <mxGeometry x="30" y="60" width="40" height="40" as="geometry" />
        </mxCell>
        <mxCell id="8Do0iTCPds5O6wWXUv8Q-9" value="Private subnet" style="points=[[0,0],[0.25,0],[0.5,0],[0.75,0],[1,0],[1,0.25],[1,0.5],[1,0.75],[1,1],[0.75,1],[0.5,1],[0.25,1],[0,1],[0,0.75],[0,0.5],[0,0.25]];outlineConnect=0;gradientColor=none;html=1;whiteSpace=wrap;fontSize=12;fontStyle=0;container=1;pointerEvents=0;collapsible=0;recursiveResize=0;shape=mxgraph.aws4.group;grIcon=mxgraph.aws4.group_security_group;grStroke=0;strokeColor=#147EBA;fillColor=#E6F2F8;verticalAlign=top;align=left;spacingLeft=30;fontColor=#147EBA;dashed=0;" vertex="1" parent="8Do0iTCPds5O6wWXUv8Q-2">
          <mxGeometry x="330" y="240" width="180" height="130" as="geometry" />
        </mxCell>
        <mxCell id="8Do0iTCPds5O6wWXUv8Q-15" value="" style="sketch=0;outlineConnect=0;fontColor=#232F3E;gradientColor=none;fillColor=#D45B07;strokeColor=none;dashed=0;verticalLabelPosition=bottom;verticalAlign=top;align=center;html=1;fontSize=12;fontStyle=0;aspect=fixed;pointerEvents=1;shape=mxgraph.aws4.c5_instance;" vertex="1" parent="8Do0iTCPds5O6wWXUv8Q-2">
          <mxGeometry x="430" y="300" width="40" height="40" as="geometry" />
        </mxCell>
        <mxCell id="8Do0iTCPds5O6wWXUv8Q-14" value="" style="sketch=0;outlineConnect=0;fontColor=#232F3E;gradientColor=none;fillColor=#D45B07;strokeColor=none;dashed=0;verticalLabelPosition=bottom;verticalAlign=top;align=center;html=1;fontSize=12;fontStyle=0;aspect=fixed;pointerEvents=1;shape=mxgraph.aws4.c5_instance;" vertex="1" parent="8Do0iTCPds5O6wWXUv8Q-2">
          <mxGeometry x="360" y="300" width="40" height="40" as="geometry" />
        </mxCell>
        <mxCell id="8Do0iTCPds5O6wWXUv8Q-16" value="Auto Scaling group" style="points=[[0,0],[0.25,0],[0.5,0],[0.75,0],[1,0],[1,0.25],[1,0.5],[1,0.75],[1,1],[0.75,1],[0.5,1],[0.25,1],[0,1],[0,0.75],[0,0.5],[0,0.25]];outlineConnect=0;gradientColor=none;html=1;whiteSpace=wrap;fontSize=12;fontStyle=0;container=1;pointerEvents=0;collapsible=0;recursiveResize=0;shape=mxgraph.aws4.groupCenter;grIcon=mxgraph.aws4.group_auto_scaling_group;grStroke=1;strokeColor=#D86613;fillColor=none;verticalAlign=top;align=center;fontColor=#D86613;dashed=1;spacingTop=25;" vertex="1" parent="8Do0iTCPds5O6wWXUv8Q-2">
          <mxGeometry x="70" y="280" width="420" height="80" as="geometry" />
        </mxCell>
        <mxCell id="8Do0iTCPds5O6wWXUv8Q-25" style="edgeStyle=none;rounded=0;orthogonalLoop=1;jettySize=auto;html=1;entryX=0.5;entryY=0;entryDx=0;entryDy=0;startArrow=none;startFill=0;endArrow=classic;endFill=1;" edge="1" parent="8Do0iTCPds5O6wWXUv8Q-2" source="8Do0iTCPds5O6wWXUv8Q-22" target="8Do0iTCPds5O6wWXUv8Q-16">
          <mxGeometry relative="1" as="geometry" />
        </mxCell>
        <mxCell id="8Do0iTCPds5O6wWXUv8Q-22" value="" style="outlineConnect=0;dashed=0;verticalLabelPosition=bottom;verticalAlign=top;align=center;html=1;shape=mxgraph.aws3.application_load_balancer;fillColor=#F58534;gradientColor=none;" vertex="1" parent="8Do0iTCPds5O6wWXUv8Q-2">
          <mxGeometry x="260" y="20" width="40" height="32" as="geometry" />
        </mxCell>
        <mxCell id="8Do0iTCPds5O6wWXUv8Q-33" style="edgeStyle=none;rounded=0;orthogonalLoop=1;jettySize=auto;html=1;entryX=0;entryY=0.5;entryDx=0;entryDy=0;entryPerimeter=0;startArrow=none;startFill=0;endArrow=none;endFill=0;" edge="1" parent="8Do0iTCPds5O6wWXUv8Q-2" source="8Do0iTCPds5O6wWXUv8Q-26" target="8Do0iTCPds5O6wWXUv8Q-31">
          <mxGeometry relative="1" as="geometry" />
        </mxCell>
        <mxCell id="8Do0iTCPds5O6wWXUv8Q-26" value="ALB" style="text;html=1;strokeColor=none;fillColor=none;align=center;verticalAlign=middle;whiteSpace=wrap;rounded=0;" vertex="1" parent="8Do0iTCPds5O6wWXUv8Q-2">
          <mxGeometry x="305" y="10" width="35" height="30" as="geometry" />
        </mxCell>
        <mxCell id="8Do0iTCPds5O6wWXUv8Q-31" value="" style="sketch=0;points=[[0,0,0],[0.25,0,0],[0.5,0,0],[0.75,0,0],[1,0,0],[0,1,0],[0.25,1,0],[0.5,1,0],[0.75,1,0],[1,1,0],[0,0.25,0],[0,0.5,0],[0,0.75,0],[1,0.25,0],[1,0.5,0],[1,0.75,0]];outlineConnect=0;fontColor=#232F3E;gradientColor=#F54749;gradientDirection=north;fillColor=#C7131F;strokeColor=#ffffff;dashed=0;verticalLabelPosition=bottom;verticalAlign=top;align=center;html=1;fontSize=12;fontStyle=0;aspect=fixed;shape=mxgraph.aws4.resourceIcon;resIcon=mxgraph.aws4.waf;" vertex="1" parent="8Do0iTCPds5O6wWXUv8Q-2">
          <mxGeometry x="530" y="2" width="48" height="48" as="geometry" />
        </mxCell>
        <mxCell id="8Do0iTCPds5O6wWXUv8Q-35" value="vgw" style="sketch=0;outlineConnect=0;fontColor=#232F3E;gradientColor=none;strokeColor=#232F3E;fillColor=#ffffff;dashed=0;verticalLabelPosition=bottom;verticalAlign=top;align=center;html=1;fontSize=12;fontStyle=0;aspect=fixed;shape=mxgraph.aws4.resourceIcon;resIcon=mxgraph.aws4.customer_gateway;" vertex="1" parent="8Do0iTCPds5O6wWXUv8Q-2">
          <mxGeometry x="578" y="210" width="40" height="40" as="geometry" />
        </mxCell>
        <mxCell id="8Do0iTCPds5O6wWXUv8Q-34" value="WAF" style="text;html=1;align=center;verticalAlign=middle;resizable=0;points=[];autosize=1;strokeColor=none;fillColor=none;" vertex="1" parent="8Do0iTCPds5O6wWXUv8Q-2">
          <mxGeometry x="538" y="50" width="40" height="20" as="geometry" />
        </mxCell>
        <mxCell id="8Do0iTCPds5O6wWXUv8Q-27" value="" style="sketch=0;points=[[0,0,0],[0.25,0,0],[0.5,0,0],[0.75,0,0],[1,0,0],[0,1,0],[0.25,1,0],[0.5,1,0],[0.75,1,0],[1,1,0],[0,0.25,0],[0,0.5,0],[0,0.75,0],[1,0.25,0],[1,0.5,0],[1,0.75,0]];outlineConnect=0;fontColor=#232F3E;gradientColor=#60A337;gradientDirection=north;fillColor=#277116;strokeColor=#ffffff;dashed=0;verticalLabelPosition=bottom;verticalAlign=top;align=center;html=1;fontSize=12;fontStyle=0;aspect=fixed;shape=mxgraph.aws4.resourceIcon;resIcon=mxgraph.aws4.s3;" vertex="1" parent="8Do0iTCPds5O6wWXUv8Q-1">
          <mxGeometry x="140" y="535" width="48" height="48" as="geometry" />
        </mxCell>
        <mxCell id="8Do0iTCPds5O6wWXUv8Q-30" value="s3" style="text;html=1;align=center;verticalAlign=middle;resizable=0;points=[];autosize=1;strokeColor=none;fillColor=none;" vertex="1" parent="8Do0iTCPds5O6wWXUv8Q-1">
          <mxGeometry x="200" y="549" width="30" height="20" as="geometry" />
        </mxCell>
        <mxCell id="8Do0iTCPds5O6wWXUv8Q-55" value="" style="edgeStyle=orthogonalEdgeStyle;curved=1;rounded=0;orthogonalLoop=1;jettySize=auto;html=1;startArrow=none;startFill=0;endArrow=classic;endFill=1;entryX=0.5;entryY=0;entryDx=0;entryDy=0;entryPerimeter=0;" edge="1" parent="8Do0iTCPds5O6wWXUv8Q-1" source="8Do0iTCPds5O6wWXUv8Q-52" target="8Do0iTCPds5O6wWXUv8Q-22">
          <mxGeometry relative="1" as="geometry" />
        </mxCell>
        <mxCell id="8Do0iTCPds5O6wWXUv8Q-52" value="" style="sketch=0;points=[[0,0,0],[0.25,0,0],[0.5,0,0],[0.75,0,0],[1,0,0],[0,1,0],[0.25,1,0],[0.5,1,0],[0.75,1,0],[1,1,0],[0,0.25,0],[0,0.5,0],[0,0.75,0],[1,0.25,0],[1,0.5,0],[1,0.75,0]];outlineConnect=0;fontColor=#232F3E;gradientColor=#945DF2;gradientDirection=north;fillColor=#5A30B5;strokeColor=#ffffff;dashed=0;verticalLabelPosition=bottom;verticalAlign=top;align=center;html=1;fontSize=12;fontStyle=0;aspect=fixed;shape=mxgraph.aws4.resourceIcon;resIcon=mxgraph.aws4.cloudfront;" vertex="1" parent="8Do0iTCPds5O6wWXUv8Q-1">
          <mxGeometry x="290" y="10" width="40" height="40" as="geometry" />
        </mxCell>
        <mxCell id="8Do0iTCPds5O6wWXUv8Q-53" value="CloudFront" style="text;html=1;align=center;verticalAlign=middle;resizable=0;points=[];autosize=1;strokeColor=none;fillColor=none;" vertex="1" parent="8Do0iTCPds5O6wWXUv8Q-1">
          <mxGeometry x="330" y="20" width="80" height="20" as="geometry" />
        </mxCell>
        <mxCell id="8Do0iTCPds5O6wWXUv8Q-40" value="" style="edgeStyle=none;rounded=0;orthogonalLoop=1;jettySize=auto;html=1;startArrow=none;startFill=0;endArrow=none;endFill=0;" edge="1" parent="1" source="8Do0iTCPds5O6wWXUv8Q-36" target="8Do0iTCPds5O6wWXUv8Q-35">
          <mxGeometry relative="1" as="geometry" />
        </mxCell>
        <mxCell id="8Do0iTCPds5O6wWXUv8Q-43" value="" style="edgeStyle=none;rounded=0;orthogonalLoop=1;jettySize=auto;html=1;startArrow=none;startFill=0;endArrow=none;endFill=0;" edge="1" parent="1" source="8Do0iTCPds5O6wWXUv8Q-36" target="8Do0iTCPds5O6wWXUv8Q-42">
          <mxGeometry relative="1" as="geometry" />
        </mxCell>
        <mxCell id="8Do0iTCPds5O6wWXUv8Q-36" value="" style="sketch=0;points=[[0,0,0],[0.25,0,0],[0.5,0,0],[0.75,0,0],[1,0,0],[0,1,0],[0.25,1,0],[0.5,1,0],[0.75,1,0],[1,1,0],[0,0.25,0],[0,0.5,0],[0,0.75,0],[1,0.25,0],[1,0.5,0],[1,0.75,0]];outlineConnect=0;fontColor=#232F3E;gradientColor=#945DF2;gradientDirection=north;fillColor=#5A30B5;strokeColor=#ffffff;dashed=0;verticalLabelPosition=bottom;verticalAlign=top;align=center;html=1;fontSize=12;fontStyle=0;aspect=fixed;shape=mxgraph.aws4.resourceIcon;resIcon=mxgraph.aws4.direct_connect;" vertex="1" parent="1">
          <mxGeometry x="740" y="330" width="38" height="38" as="geometry" />
        </mxCell>
        <mxCell id="8Do0iTCPds5O6wWXUv8Q-38" value="On-Premise" style="sketch=0;outlineConnect=0;gradientColor=none;html=1;whiteSpace=wrap;fontSize=12;fontStyle=0;shape=mxgraph.aws4.group;grIcon=mxgraph.aws4.group_on_premise;strokeColor=#AAB7B8;fillColor=none;verticalAlign=top;align=left;spacingLeft=30;fontColor=#AAB7B8;dashed=0;" vertex="1" parent="1">
          <mxGeometry x="850" y="119" width="230" height="460" as="geometry" />
        </mxCell>
        <mxCell id="8Do0iTCPds5O6wWXUv8Q-42" value="cgw" style="sketch=0;outlineConnect=0;fontColor=#232F3E;gradientColor=none;strokeColor=#232F3E;fillColor=#ffffff;dashed=0;verticalLabelPosition=bottom;verticalAlign=top;align=center;html=1;fontSize=12;fontStyle=0;aspect=fixed;shape=mxgraph.aws4.resourceIcon;resIcon=mxgraph.aws4.customer_gateway;" vertex="1" parent="1">
          <mxGeometry x="827" y="330" width="40" height="40" as="geometry" />
        </mxCell>
        <mxCell id="8Do0iTCPds5O6wWXUv8Q-48" style="edgeStyle=orthogonalEdgeStyle;curved=1;rounded=0;orthogonalLoop=1;jettySize=auto;html=1;startArrow=classic;startFill=1;endArrow=none;endFill=0;exitX=0.348;exitY=0.263;exitDx=0;exitDy=0;exitPerimeter=0;" edge="1" parent="1" source="8Do0iTCPds5O6wWXUv8Q-38" target="8Do0iTCPds5O6wWXUv8Q-16">
          <mxGeometry relative="1" as="geometry" />
        </mxCell>
        <mxCell id="8Do0iTCPds5O6wWXUv8Q-46" value="" style="sketch=0;pointerEvents=1;shadow=0;dashed=0;html=1;strokeColor=none;fillColor=#DF8C42;labelPosition=center;verticalLabelPosition=bottom;verticalAlign=top;align=center;outlineConnect=0;shape=mxgraph.veeam2.oracle_db;" vertex="1" parent="1">
          <mxGeometry x="935" y="190" width="60" height="90" as="geometry" />
        </mxCell>
        <mxCell id="8Do0iTCPds5O6wWXUv8Q-49" style="edgeStyle=orthogonalEdgeStyle;curved=1;rounded=0;orthogonalLoop=1;jettySize=auto;html=1;startArrow=classic;startFill=1;endArrow=none;endFill=0;" edge="1" parent="1" source="8Do0iTCPds5O6wWXUv8Q-47">
          <mxGeometry relative="1" as="geometry">
            <mxPoint x="560" y="440" as="targetPoint" />
          </mxGeometry>
        </mxCell>
        <mxCell id="8Do0iTCPds5O6wWXUv8Q-47" value="" style="outlineConnect=0;dashed=0;verticalLabelPosition=bottom;verticalAlign=top;align=center;html=1;shape=mxgraph.aws3.redis;fillColor=#2E73B8;gradientColor=none;" vertex="1" parent="1">
          <mxGeometry x="935" y="360" width="60" height="90" as="geometry" />
        </mxCell>
      </root>
    </mxGraphModel>
  </diagram>
</mxfile>
